# xmcd
#
# Track frame offsets: 
#        150
#        16015
#        30197
#        47457
#        60647
#        81175
#        95892
#        113245
#        126107
#        139525
#        153275
#
# Disc length: 2238 seconds
#
# Revision: 4
# Processed by: cddbd v1.5.2PL0 Copyright (c) Steve Scherf et al.
# Submitted via: ExactAudioCopyFreeDBPlugin 1.0
#
DISCID=7d08bc0b
DTITLE=Dwight Yoakam - Buenas Noches From A Lonely Room
DYEAR=1988
DGENRE=Country
TTITLE0=I Got You
TTITLE1=One More Name
TTITLE2=What I Don't Know
TTITLE3=Home Of The Blues
TTITLE4=Buenas Noches From A Lonely Room (She Wore Red Dresses)
TTITLE5=I Hear You Knockin'
TTITLE6=I Sang Dixie
TTITLE7=Streets Of Bakersfield (with Buck Owens)
TTITLE8=Floyd County
TTITLE9=Send Me The Pillow (with Maria McKee)
TTITLE10=Hold On To God
EXTD=with Maria McKee's name added in duet!\n
EXTT0=
EXTT1=
EXTT2=
EXTT3=
EXTT4=
EXTT5=
EXTT6=
EXTT7=
EXTT8=
EXTT9=
EXTT10=
PLAYORDER=
